<?xml version="1.0" encoding="utf-8"?>
<!-- Generator: Adobe Illustrator 16.0.0, SVG Export Plug-In . SVG Version: 6.00 Build 0)  -->
<!DOCTYPE svg PUBLIC "-//W3C//DTD SVG 1.1//EN" "http://www.w3.org/Graphics/SVG/1.1/DTD/svg11.dtd">
<svg version="1.1" id="Layer_1" xmlns="http://www.w3.org/2000/svg" xmlns:xlink="http://www.w3.org/1999/xlink" x="0px" y="0px"
	 width="50px" height="50px" viewBox="0 0 50 50" enable-background="new 0 0 50 50" xml:space="preserve">
<path fill="#89C1F4" d="M27.459,26.241c-4.068,0-7.377-3.309-7.377-7.377c0-4.068,3.309-7.377,7.377-7.377
	c4.068,0,7.377,3.309,7.377,7.377C34.836,22.932,31.527,26.241,27.459,26.241z"/>
<path fill="#15549A" d="M12.705,41.803c-1.355,0-2.459,1.104-2.459,2.461c0,1.354,1.104,2.459,2.459,2.459
	c1.356,0,2.459-1.104,2.459-2.459C15.164,42.906,14.061,41.803,12.705,41.803z M12.705,45.082c-0.452,0-0.819-0.367-0.819-0.818
	c0-0.453,0.367-0.82,0.819-0.82c0.453,0,0.82,0.367,0.82,0.82C13.525,44.715,13.157,45.082,12.705,45.082z"/>
<path fill="#15549A" d="M37.295,41.803c-1.355,0-2.459,1.104-2.459,2.461c0,1.354,1.104,2.459,2.459,2.459s2.459-1.104,2.459-2.459
	C39.754,42.906,38.65,41.803,37.295,41.803z M37.295,45.082c-0.453,0-0.82-0.367-0.82-0.818c0-0.453,0.367-0.82,0.82-0.82
	c0.452,0,0.818,0.367,0.818,0.82C38.115,44.715,37.748,45.082,37.295,45.082z"/>
<path fill="#15549A" d="M43.729,33.656c-0.324-0.98-1.248-1.689-2.336-1.689h-2.601c-1.571,0-3.112,0.596-4.283,1.641h-4.592v-1.186
	c0-1.607-1.308-2.914-2.914-2.914c-1.017,0-1.974,0.543-2.498,1.415l-1.61,2.685h-2.034c-0.259,0-0.49-0.125-0.632-0.344
	s-0.163-0.479-0.057-0.717l1.648-3.707c0.539-1.213-0.005-2.646-1.211-3.197c-1.007-0.461-2.199-0.182-2.898,0.68l-4.668,5.756
	l-7.151,2.199c-2.299,0.709-3.845,2.8-3.845,5.205v2.908c0,1.484,1.208,2.691,2.691,2.691H7.03C7.433,47.857,9.82,50,12.705,50
	c2.885,0,5.272-2.143,5.672-4.918h13.246C32.023,47.857,34.41,50,37.295,50s5.271-2.143,5.672-4.918h0.066
	c2.712,0,4.918-2.206,4.918-4.918v-1.641C47.951,36.049,46.111,33.995,43.729,33.656z M25.912,31.768
	c0.23-0.383,0.648-0.619,1.093-0.619c0.702,0,1.274,0.57,1.274,1.273v1.186h-3.471L25.912,31.768z M12.705,48.361
	c-2.26,0-4.098-1.84-4.098-4.1s1.838-4.099,4.098-4.099c2.26,0,4.099,1.839,4.099,4.099S14.964,48.361,12.705,48.361z
	 M37.295,48.361c-2.26,0-4.098-1.84-4.098-4.1s1.838-4.099,4.098-4.099s4.098,1.839,4.098,4.099
	C41.395,46.521,39.555,48.361,37.295,48.361z M46.313,40.164c0,1.809-1.472,3.279-3.278,3.279h-0.066
	c-0.399-2.776-2.786-4.92-5.672-4.92c-2.885,0-5.271,2.144-5.672,4.92H18.377c-0.4-2.776-2.788-4.92-5.672-4.92
	c-2.884,0-5.272,2.144-5.672,4.92H4.74c-0.581,0-1.052-0.474-1.052-1.053v-1.406h2.049c1.13,0,2.049-0.92,2.049-2.051
	c0-1.129-0.919-2.049-2.049-2.049h-0.41v1.641h0.41c0.226,0,0.41,0.184,0.41,0.408c0,0.226-0.185,0.41-0.41,0.41H3.7
	c0.059-1.621,1.114-3.02,2.676-3.5l7.629-2.348l4.982-6.143c0.229-0.283,0.617-0.371,0.943-0.223c0.393,0.18,0.57,0.646,0.395,1.041
	l-1.648,3.709c-0.33,0.742-0.262,1.594,0.181,2.275s1.193,1.088,2.006,1.088h14.313l0.24-0.24c0.89-0.889,2.12-1.398,3.377-1.398
	h2.601c0.453,0,0.819,0.367,0.819,0.819v0.819h0.82c1.808,0,3.278,1.471,3.278,3.279V40.164z"/>
<rect x="26.639" y="4.098" fill="#15549A" width="1.641" height="5.738"/>
<rect x="26.639" y="0.831" fill="#15549A" width="1.641" height="1.64"/>
<rect x="31.557" y="3.279" fill="#15549A" width="1.642" height="8.197"/>
<rect x="31.557" fill="#15549A" width="1.642" height="1.64"/>
<rect x="21.721" y="5.738" fill="#15549A" width="1.64" height="5.738"/>
<rect x="21.721" y="2.471" fill="#15549A" width="1.64" height="1.639"/>
<path fill="#15549A" d="M24.514,19.222c0.31,0,0.599,0.007,0.888-0.001c0.581-0.015,1.139-0.124,1.633-0.47
	c0.348-0.243,0.58-0.58,0.682-1.01c0.017-0.079,0.023-0.162,0.037-0.265c-1.19,0-2.367,0-3.573,0
	c0.041-0.072,0.063-0.116,0.09-0.159c0.141-0.223,0.286-0.442,0.421-0.669c0.05-0.083,0.106-0.114,0.2-0.113
	c0.835,0.003,1.671,0.002,2.505,0.002c0.061,0,0.119,0,0.202,0c-0.093-0.213-0.221-0.374-0.381-0.504
	c-0.435-0.351-0.937-0.495-1.474-0.507c-0.453-0.01-0.906-0.002-1.358-0.002c-0.05,0-0.1,0-0.173,0
	c0.024-0.051,0.034-0.085,0.053-0.115c0.149-0.239,0.298-0.48,0.455-0.715c0.032-0.046,0.1-0.092,0.152-0.093
	c1.92-0.004,3.84-0.003,5.76-0.001c0.026,0,0.053,0.005,0.104,0.01c-0.127,0.204-0.268,0.381-0.359,0.583
	c-0.129,0.279-0.316,0.364-0.604,0.34c-0.355-0.03-0.711-0.008-1.066-0.008c-0.041,0-0.081,0.004-0.14,0.008
	c0.024,0.044,0.044,0.074,0.059,0.106c0.11,0.244,0.233,0.483,0.325,0.735c0.043,0.117,0.073,0.17,0.203,0.167
	c0.471-0.009,0.941-0.003,1.412-0.003c0.046,0,0.09,0,0.164,0c-0.129,0.207-0.265,0.381-0.356,0.578
	c-0.137,0.296-0.335,0.405-0.646,0.363c-0.222-0.029-0.45-0.006-0.673-0.006c-0.378,1.718-1.557,2.293-3.076,2.431
	c0.035,0.056,0.061,0.108,0.095,0.151c1.052,1.359,2.108,2.717,3.159,4.08c0.055,0.071,0.07,0.174,0.115,0.289
	c-0.095,0.004-0.145,0.009-0.193,0.009c-0.346,0-0.691-0.003-1.037,0.003c-0.094,0.001-0.153-0.027-0.212-0.102
	c-1.009-1.261-2.007-2.53-3.036-3.771c-0.27-0.326-0.411-0.648-0.356-1.07C24.524,19.399,24.514,19.306,24.514,19.222z"/>
</svg>
