<?xml version="1.0" encoding="utf-8"?>
<!-- Generator: Adobe Illustrator 16.0.0, SVG Export Plug-In . SVG Version: 6.00 Build 0)  -->
<!DOCTYPE svg PUBLIC "-//W3C//DTD SVG 1.1//EN" "http://www.w3.org/Graphics/SVG/1.1/DTD/svg11.dtd">
<svg version="1.1" id="Layer_1" xmlns="http://www.w3.org/2000/svg" xmlns:xlink="http://www.w3.org/1999/xlink" x="0px" y="0px"
	 width="60px" height="60px" viewBox="-5 -5 60 60" enable-background="new -5 -5 60 60" xml:space="preserve">
<g>
	<path fill="#89C1F4" d="M32.777,50.117c-1.257-0.107-2.528-0.151-3.77-0.332c-1.424-0.209-2.831-0.512-4.227-0.826
		c-0.483-0.11-1.065-0.325-1.062-0.828c0.002-0.499,0.586-0.721,1.067-0.823c1.562-0.337,3.128-0.694,4.72-0.874
		c3.183-0.361,6.39-0.357,9.583-0.098c1.665,0.137,3.311,0.451,4.96,0.704c0.319,0.049,0.632,0.172,0.931,0.288
		c0.442,0.178,1.082,0.353,0.958,0.811c-0.089,0.32-0.584,0.652-0.994,0.805c-1.687,0.628-3.51,0.799-5.33,0.961
		c-0.905,0.077-1.813,0.144-2.721,0.215C35.521,50.117,34.149,50.117,32.777,50.117z"/>
	<path fill="none" stroke="#15549A" stroke-width="0.75" stroke-miterlimit="10" d="M39.381,37.581
		c0.244,0.051,0.486,0.117,0.733,0.153c1.89,0.277,3.776,0.554,5.668,0.818c1.713,0.239,2.415,1.068,2.094,2.468
		c-0.158,0.688-0.302,1.378-0.456,2.1c-7.446-1.083-14.837-2.16-22.322-3.251c0.229-0.958,0.379-1.902,0.693-2.808
		c0.264-0.763,1.221-1.184,2.264-1.065c1.355,0.154,2.697,0.376,4.044,0.567c0.841,0.122,1.679,0.249,2.518,0.365
		c0.12,0.018,0.255-0.012,0.486-0.025c-0.152-0.195-0.246-0.31-0.334-0.429c-0.563-0.774-0.223-1.715,0.786-2.056
		c0.301-0.101,0.343-0.236,0.353-0.459c0.063-1.6-0.338-3.153-0.706-4.709c-0.229-0.979-0.486-1.958-0.61-2.948
		c-0.282-2.254,1.574-4.12,4.374-4.478c2.484-0.314,5.01,1.158,5.558,3.248c0.24,0.919,0.17,1.823-0.386,2.655
		c-0.724,1.076-1.538,2.114-2.243,3.197c-0.755,1.161-1.435,2.354-2.145,3.536c-0.154,0.253-0.097,0.425,0.178,0.634
		c0.772,0.582,0.661,1.569-0.188,2.119c-0.119,0.079-0.244,0.152-0.366,0.231C39.372,37.491,39.377,37.536,39.381,37.581z"/>
	<path fill="#15549A" d="M25.455,43.12c0.125-0.602,0.243-1.146,0.367-1.751c6.909,1.008,13.775,2.007,20.687,3.016
		c-0.128,0.604-0.245,1.16-0.37,1.75C39.225,45.125,32.374,44.127,25.455,43.12z"/>
	<path fill="#15549A" d="M17.406,23.033c0.79,0,1.522,0.014,2.256-0.002c1.476-0.032,2.892-0.259,4.144-0.987
		c0.883-0.507,1.471-1.217,1.73-2.117c0.043-0.164,0.06-0.341,0.094-0.558c-3.021,0-6.009,0-9.069,0
		c0.104-0.151,0.161-0.24,0.227-0.33c0.359-0.47,0.727-0.928,1.07-1.406c0.13-0.173,0.267-0.237,0.506-0.237
		c2.122,0.008,4.243,0.005,6.36,0.005c0.155,0,0.305,0,0.514,0c-0.235-0.448-0.559-0.784-0.966-1.057
		c-1.103-0.736-2.377-1.039-3.741-1.061c-1.149-0.021-2.3-0.006-3.444-0.006c-0.129,0-0.257,0-0.441,0
		c0.063-0.106,0.089-0.18,0.134-0.24c0.381-0.503,0.758-1.007,1.154-1.501c0.081-0.097,0.253-0.195,0.386-0.195
		c4.875-0.007,9.748-0.005,14.622-0.004c0.066,0,0.132,0.012,0.261,0.021c-0.319,0.43-0.677,0.798-0.912,1.222
		c-0.325,0.583-0.8,0.763-1.531,0.711c-0.9-0.062-1.804-0.015-2.704-0.015c-0.106,0-0.207,0.006-0.355,0.015
		c0.063,0.093,0.112,0.155,0.148,0.224c0.28,0.512,0.593,1.011,0.826,1.539c0.107,0.246,0.185,0.357,0.515,0.352
		c1.194-0.021,2.392-0.006,3.586-0.006c0.117,0,0.229,0,0.414,0c-0.324,0.434-0.672,0.799-0.902,1.21
		c-0.348,0.624-0.853,0.851-1.642,0.763c-0.564-0.061-1.143-0.012-1.71-0.012c-0.958,3.605-3.95,4.81-7.807,5.096
		c0.089,0.119,0.153,0.229,0.24,0.32c2.669,2.851,5.351,5.695,8.018,8.554c0.141,0.147,0.181,0.363,0.293,0.604
		c-0.241,0.013-0.366,0.019-0.49,0.019c-0.879,0-1.754-0.006-2.634,0.01c-0.235,0.002-0.388-0.057-0.536-0.214
		c-2.562-2.646-5.096-5.308-7.708-7.908c-0.684-0.683-1.041-1.361-0.903-2.244C17.431,23.402,17.406,23.209,17.406,23.033z"/>
	<g>
		<g>
			<g>
				<path fill="none" stroke="#15549A" stroke-miterlimit="10" d="M19.658,43.336c0,0.691-0.517,1.258-1.147,1.258H3.195
					c-0.631,0-1.147-0.566-1.147-1.258V12.284c0-0.692,0.479-1.468,1.063-1.729L26.309,0.292c0.586-0.259,1.529-0.222,2.096,0.081
					L46.26,9.911c0.567,0.304,1.03,1.118,1.03,1.808v7.664c0,0.691-0.517,1.257-1.147,1.257h-2.857
					c-0.633,0-1.147-0.566-1.147-1.257V14.91c0-0.691-0.464-1.505-1.032-1.808L28.149,6.181c-0.567-0.304-1.518-0.362-2.114-0.131
					L8.283,12.97c-0.596,0.231-1.081,0.987-1.081,1.679V38.24c0,0.69,0.516,1.258,1.147,1.258h10.161
					c0.631,0,1.147,0.563,1.147,1.257V43.336z"/>
			</g>
		</g>
	</g>
</g>
</svg>
