<?xml version="1.0" encoding="utf-8"?>
<!-- Generator: Adobe Illustrator 16.0.0, SVG Export Plug-In . SVG Version: 6.00 Build 0)  -->
<!DOCTYPE svg PUBLIC "-//W3C//DTD SVG 1.1//EN" "http://www.w3.org/Graphics/SVG/1.1/DTD/svg11.dtd">
<svg version="1.1" id="Layer_1" xmlns="http://www.w3.org/2000/svg" xmlns:xlink="http://www.w3.org/1999/xlink" x="0px" y="0px"
	 width="60px" height="60px" viewBox="-5 -5 60 60" enable-background="new -5 -5 60 60" xml:space="preserve">
<g>
	<path fill="#15549A" d="M11.881,11.274c-0.574-1.641-0.587-3.265-0.093-4.9c0.647-2.151,2.065-3.75,3.848-5.093
		c2.594-1.955,5.461-2.516,8.59-1.496c1.448,0.471,2.674,1.289,3.574,2.518c0.074,0.105,0.178,0.231,0.294,0.263
		c1.674,0.465,2.307,1.732,2.639,3.215c0.405,1.817,0.166,3.625-0.164,5.427c-0.064,0.35-0.094,0.615,0.223,0.932
		c0.239,0.24,0.34,0.713,0.321,1.072c-0.075,1.484-0.506,2.886-1.242,4.19c-0.236,0.422-0.552,0.805-1.108,0.625
		c-0.327,0.961-0.576,1.931-0.979,2.834c-1.307,2.912-3.688,4.472-6.907,4.459c-3.157-0.01-5.613-1.474-7.019-4.291
		c-0.479-0.959-0.701-2.038-1.058-3.054c-0.059-0.167-0.196-0.313-0.318-0.452c-0.167-0.191-0.403-0.34-0.522-0.553
		c-0.754-1.354-1.211-2.796-1.251-4.339C10.685,11.801,10.975,11.491,11.881,11.274z"/>
	<path fill="none" stroke="#15549A" stroke-width="0.75" stroke-miterlimit="10" d="M23.601,37.582
		c1.385-4.236,2.738-8.373,4.059-12.421c2.917,1.32,5.805,2.625,8.591,3.884c-6.884,1.725-10.139,6.103-9.753,13.105
		c-8.176,0-16.385,0-24.626,0c-0.02-0.067-0.062-0.143-0.058-0.219c0.103-2.543,0.116-5.094,0.341-7.628
		c0.259-2.896,1.837-4.88,4.742-5.873c2.544-0.87,4.959-2.034,7.334-3.423c1.362,4.178,2.714,8.324,4.115,12.619
		c0.561-1.548,1.073-2.938,1.554-4.339c0.047-0.134-0.078-0.335-0.152-0.491c-0.414-0.85-0.937-1.66-1.229-2.544
		c-0.365-1.109,0.182-1.907,1.331-2.239c0.828-0.24,1.649-0.217,2.457,0.077c0.954,0.348,1.452,1.102,1.142,2.04
		c-0.303,0.916-0.804,1.775-1.264,2.637c-0.139,0.259-0.211,0.454-0.103,0.741c0.45,1.183,0.874,2.379,1.31,3.568
		C23.441,37.215,23.505,37.35,23.601,37.582z"/>
	<g>
		<ellipse fill="#89C1F4" cx="38.299" cy="40.155" rx="9.419" ry="9.13"/>
		<path fill="#15549A" d="M34.701,40.069c0.38,0,0.733,0.006,1.087-0.002c0.709-0.013,1.392-0.11,1.993-0.421
			c0.426-0.217,0.709-0.518,0.835-0.9c0.02-0.07,0.028-0.145,0.044-0.238c-1.455,0-2.894,0-4.366,0
			c0.052-0.063,0.076-0.102,0.109-0.141c0.173-0.2,0.35-0.396,0.514-0.598c0.063-0.073,0.13-0.103,0.245-0.103
			c1.021,0.003,2.043,0.003,3.063,0.003c0.072,0,0.146,0,0.246,0c-0.115-0.19-0.27-0.335-0.465-0.449
			c-0.531-0.315-1.146-0.442-1.803-0.45c-0.551-0.01-1.106-0.005-1.656-0.005c-0.063,0-0.123,0-0.213,0
			c0.029-0.044,0.045-0.077,0.066-0.103c0.183-0.212,0.364-0.43,0.555-0.64c0.037-0.041,0.121-0.08,0.187-0.08
			c2.347-0.005,4.69-0.003,7.035-0.003c0.033,0,0.066,0.006,0.127,0.008c-0.154,0.182-0.324,0.342-0.439,0.522
			c-0.158,0.246-0.385,0.324-0.738,0.3c-0.431-0.025-0.867-0.005-1.3-0.005c-0.052,0-0.101,0.005-0.173,0.005
			c0.031,0.042,0.056,0.067,0.072,0.098c0.133,0.218,0.285,0.43,0.396,0.654c0.051,0.105,0.089,0.151,0.248,0.15
			c0.576-0.009,1.15-0.003,1.728-0.003c0.056,0,0.109,0,0.2,0c-0.159,0.185-0.322,0.339-0.436,0.515
			c-0.167,0.267-0.409,0.361-0.79,0.325c-0.271-0.025-0.551-0.005-0.824-0.005c-0.463,1.535-1.901,2.048-3.758,2.17
			c0.043,0.051,0.074,0.098,0.117,0.135c1.284,1.215,2.575,2.426,3.857,3.645c0.069,0.063,0.087,0.153,0.141,0.256
			c-0.114,0.007-0.174,0.009-0.235,0.009c-0.422,0-0.845-0.002-1.267,0.004c-0.114,0.001-0.186-0.023-0.259-0.091
			c-1.231-1.125-2.453-2.261-3.71-3.366c-0.327-0.292-0.5-0.581-0.434-0.957C34.713,40.228,34.701,40.145,34.701,40.069z"/>
	</g>
</g>
</svg>
