<?xml version="1.0" encoding="utf-8"?>
<!-- Generator: Adobe Illustrator 16.0.0, SVG Export Plug-In . SVG Version: 6.00 Build 0)  -->
<!DOCTYPE svg PUBLIC "-//W3C//DTD SVG 1.1//EN" "http://www.w3.org/Graphics/SVG/1.1/DTD/svg11.dtd">
<svg version="1.1" id="Layer_1" xmlns="http://www.w3.org/2000/svg" xmlns:xlink="http://www.w3.org/1999/xlink" x="0px" y="0px"
	 width="60px" height="60px" viewBox="-5 -5 60 60" enable-background="new -5 -5 60 60" xml:space="preserve">
<path fill="#89C1F4" d="M22.581,8.063L13.71,5.647L11.53,7.46c-0.685-1.026-1.046-2.221-1.046-3.454V2.018
	c0-1.112,0.904-2.016,2.016-2.016s2.016,0.904,2.016,2.016v0.807c0,0.222,0.181,0.403,0.403,0.403s0.403-0.182,0.403-0.403V2.018
	c0-1.112,0.904-2.016,2.016-2.016c1.112,0,2.016,0.904,2.016,2.016v0.807c0,0.222,0.181,0.403,0.403,0.403
	c0.222,0,0.403-0.182,0.403-0.403V2.018c0-1.112,0.904-2.016,2.016-2.016c1.112,0,2.016,0.904,2.016,2.016v1.988
	c0,1.233-0.361,2.428-1.046,3.454L22.581,8.063z"/>
<path fill="#15549A" d="M9.868,20.16l-1.613-0.807h-2.61V7.256H0v15.323h5.645v-1.613h2.229l1.613,0.807h0.997V20.16H9.868
	L9.868,20.16z M4.032,20.966H1.613V8.869h2.419V20.966L4.032,20.966z"/>
<path fill="#89C1F4" d="M17.748,37.904c-0.146,0-0.291-0.002-0.438-0.008c-5.443-0.222-9.952-4.834-10.05-10.285
	c-0.051-2.813,1.001-5.469,2.962-7.485c1.729-1.778,2.682-3.997,2.682-6.245l4.032-2.589l1.613,1.613v8.062h5.645l0.944-0.971
	c1.992,1.98,3.088,4.617,3.088,7.426c0,2.881-1.146,5.566-3.225,7.563C23.032,36.877,20.469,37.904,17.748,37.904z"/>
<path fill="#15549A" d="M25.177,11.292c0.388-0.429,0.63-0.993,0.63-1.614c0-1.334-1.084-2.421-2.418-2.421h-3.002l-0.561-0.702
	l-6.302-1.802L8.579,8.869h-3.74v1.613h4.324l4.735-3.944l4.988,1.425l1.697,2.121c0.224,0.28,0.323,0.632,0.278,0.988
	c-0.045,0.355-0.229,0.673-0.517,0.888c-0.52,0.39-1.26,0.337-1.721-0.123l-1.627-1.627L12.4,13.887l1.007,1.26l3.469-2.775
	l0.606,0.607c0.089,0.089,0.188,0.161,0.286,0.236c0.059,0.588,0.273,0.935,0.603,1.3c-0.387,0.429-0.629,0.992-0.629,1.614
	s0.243,1.185,0.629,1.613c-0.387,0.429-0.629,0.989-0.629,1.611c0,1.335,1.085,2.419,2.419,2.419h3.226
	c1.334,0,2.419-1.084,2.419-2.418c0-0.622-0.242-1.183-0.631-1.612c0.389-0.429,0.631-0.99,0.631-1.613s-0.242-1.184-0.631-1.613
	c0.389-0.429,0.631-0.991,0.631-1.613C25.807,12.281,25.563,11.721,25.177,11.292z M23.387,20.16h-3.226
	c-0.444,0-0.806-0.362-0.806-0.807s0.362-0.806,0.806-0.806h3.226c0.444,0,0.806,0.362,0.806,0.806
	C24.193,19.798,23.832,20.16,23.387,20.16z M23.387,16.934h-3.226c-0.444,0-0.806-0.362-0.806-0.806
	c0-0.444,0.362-0.807,0.806-0.807h3.226c0.444,0,0.806,0.362,0.806,0.807C24.193,16.573,23.832,16.934,23.387,16.934z
	 M23.387,13.708h-2.988c0.322-0.096,0.632-0.246,0.913-0.457c0.406-0.305,0.707-0.706,0.906-1.156h1.169
	c0.444,0,0.806,0.362,0.806,0.806C24.193,13.346,23.832,13.708,23.387,13.708z M23.387,10.482h-0.946
	c-0.074-0.508-0.269-0.992-0.599-1.406L21.676,8.87h1.711c0.444,0,0.806,0.362,0.806,0.806
	C24.193,10.12,23.832,10.482,23.387,10.482z"/>
<path fill="#15549A" d="M44.355,37.9v2.42h-5.401l-2.216-1.479l-6.797-2.408c-0.646-0.229-1.342-0.184-1.953,0.129
	c-0.611,0.311-1.059,0.842-1.258,1.498c-0.344,1.137,0.168,2.365,1.217,2.924l1.746,0.927l-2.539,0.009l-1.045-2.609
	c-0.342-0.854-1.16-1.408-2.083-1.408c-0.72,0-1.401,0.352-1.821,0.936c-0.42,0.585-0.534,1.344-0.304,2.021l0.244,0.727
	l-1.769-0.967c-0.563-0.311-1.236-0.369-1.844-0.163c-0.609,0.203-1.11,0.653-1.375,1.239c-0.518,1.145-0.041,2.477,1.085,3.029
	l3.98,1.965l8.262,1.683l10.723,0.015l3.146-0.629V50H50V37.9H44.355L44.355,37.9z M23.516,39.775
	c0.271-0.377,0.924-0.297,1.096,0.135l0.807,2.015l-1.453,0.005l-0.534-1.586C23.366,40.15,23.396,39.943,23.516,39.775z
	 M41.049,46.771H30.725l-7.882-1.576l-3.886-1.916c-0.341-0.17-0.486-0.572-0.329-0.92c0.081-0.183,0.229-0.314,0.417-0.377
	c0.187-0.064,0.387-0.045,0.56,0.051l2.77,1.514h7.654l3.182-1.592l-4.507-2.396c-0.369-0.194-0.55-0.629-0.429-1.028
	c0.07-0.232,0.227-0.421,0.441-0.529s0.463-0.125,0.688-0.046l6.521,2.288l2.537,1.69h5.893v4.178L41.049,46.771z M48.387,48.385
	h-2.419v-8.869h2.419V48.385z"/>
<path fill="#15549A" d="M14.313,28.646c0.381,0,0.737,0.009,1.093-0.002c0.714-0.02,1.401-0.162,2.008-0.617
	c0.428-0.318,0.713-0.76,0.838-1.324c0.022-0.104,0.029-0.213,0.047-0.348c-1.465,0-2.913,0-4.396,0
	c0.05-0.095,0.078-0.152,0.11-0.209c0.173-0.293,0.352-0.58,0.518-0.877c0.062-0.11,0.13-0.15,0.246-0.149
	c1.027,0.005,2.055,0.003,3.083,0.003c0.073,0,0.146,0,0.247,0c-0.113-0.28-0.271-0.49-0.469-0.661
	c-0.533-0.461-1.151-0.65-1.813-0.665c-0.556-0.013-1.113-0.003-1.669-0.003c-0.062,0-0.124,0-0.213,0
	c0.029-0.067,0.042-0.112,0.065-0.151c0.184-0.314,0.366-0.63,0.559-0.938c0.039-0.061,0.123-0.121,0.187-0.122
	c2.362-0.005,4.724-0.004,7.086-0.002c0.032,0,0.064,0.007,0.128,0.013c-0.158,0.268-0.329,0.5-0.443,0.764
	c-0.159,0.366-0.389,0.478-0.743,0.446c-0.436-0.039-0.874-0.01-1.312-0.01c-0.05,0-0.099,0.005-0.171,0.01
	c0.03,0.058,0.055,0.097,0.072,0.139c0.137,0.32,0.288,0.634,0.4,0.964c0.052,0.153,0.091,0.223,0.25,0.22
	c0.579-0.012,1.158-0.004,1.737-0.004c0.056,0,0.111,0,0.203,0c-0.16,0.271-0.326,0.5-0.439,0.758
	c-0.169,0.389-0.413,0.531-0.795,0.477c-0.273-0.039-0.554-0.008-0.828-0.008c-0.465,2.254-1.915,3.008-3.784,3.188
	c0.042,0.073,0.073,0.142,0.116,0.198c1.295,1.783,2.594,3.564,3.886,5.352c0.066,0.094,0.087,0.229,0.142,0.379
	c-0.117,0.006-0.178,0.012-0.237,0.012c-0.426,0-0.852-0.004-1.277,0.004c-0.114,0.002-0.188-0.035-0.261-0.133
	c-1.24-1.654-2.468-3.319-3.734-4.947c-0.332-0.428-0.505-0.851-0.438-1.404C14.325,28.879,14.313,28.757,14.313,28.646z"/>
</svg>
